<?xml version="1.0" encoding="UTF-8"?>
<!-- Generator: Adobe Illustrator 23.0.1, SVG Export Plug-In . SVG Version: 6.00 Build 0)  -->
<svg enable-background="new 0 0 112 36" version="1.1" viewBox="0 0 112 36" xml:space="preserve" xmlns="http://www.w3.org/2000/svg">
<style type="text/css">
	.st0{fill:#FECA57;}
	.st1{fill:#FCC419;}
	.st2{enable-background:new    ;}
	.st3{fill:#FFFFFF;}
	.st4{fill:#E03131;}
</style>
<path class="st0" d="m30.1 21.3v-0.1s0-0.1-0.1-0.1l-0.2-0.2s-0.1 0-0.1-0.1h-0.1-0.3-0.1s-0.1 0-0.1 0.1l-0.2 0.2s0 0.1-0.1 0.1v0.4s0 0.1 0.1 0.1l0.2 0.2s0.1 0 0.1 0.1h0.4s0.1 0 0.1-0.1l0.2-0.2s0-0.1 0.1-0.1v-0.2l0.1-0.1z"/>
<path class="st0" d="m11.3 28.1v-0.1s0-0.1-0.1-0.1l-0.2-0.2s-0.1 0-0.1-0.1h-0.1-0.3-0.1s-0.1 0-0.1 0.1l-0.2 0.2s0 0.1-0.1 0.1v0.4s0 0.1 0.1 0.1l0.2 0.2s0.1 0 0.1 0.1h0.2c0.2 0 0.4-0.1 0.5-0.2l0.1-0.1s0-0.1 0.1-0.1v-0.2-0.1z"/>
<path class="st1" d="m36 25.7c0-1-0.5-2-1.4-2.5-0.3-2.1-1.3-4.1-2.9-5.5-1.7-1.6-3.9-2.4-6.2-2.4h-5.6l0.1-1.4h0.4c0.4 0 0.7-0.3 0.7-0.7v-3.3c0-0.4-0.3-0.7-0.7-0.7h-1.3l-0.6-2.3c-0.1-0.3-0.4-0.5-0.7-0.5h-6.6v-4.8h2.8c0.4 0 0.7-0.3 0.7-0.7s-0.3-0.7-0.7-0.7h-3.4c-0.4 0-0.7 0.3-0.7 0.7v5.4h-6.6c-0.3 0-0.6 0.2-0.7 0.5l-0.5 2.4h-1.4c-0.4 0-0.7 0.3-0.7 0.7v3.3c0 0.4 0.3 0.7 0.7 0.7h0.4l1.8 21.2c0 0.4 0.3 0.6 0.7 0.6l24.8 0.1c3.1 0 5.8-2.3 6.2-5.3 0.4-0.3 0.7-0.9 0.7-1.4 0-0.4-0.1-0.8-0.4-1.1 0.7-0.6 1.1-1.4 1.1-2.3zm-1.6-0.8h-15.3l0.1-0.7h13.9c0.5 0 1 0.3 1.3 0.7zm-13.2-8.2h0.5v1c0 0.4 0.3 0.7 0.7 0.7s0.7-0.3 0.7-0.7v-1h0.5l1.7 1.5c0.1 0.1 0.3 0.2 0.5 0.2s0.4-0.1 0.5-0.2c0.3-0.3 0.2-0.7-0.1-1l-0.5-0.4c3.6 0.1 6.6 2.7 7.3 6.1h-13.7l0.1-0.7h7.3c0.4 0 0.7-0.3 0.7-0.7s-0.3-0.7-0.7-0.7h-7.2l0.2-2.7 1.5-1.4zm-17.3-9h13.5l0.4 1.4h-14.3l0.4-1.4zm-2.5 2.9h18.3v1.9h-18.3v-1.9zm8.5 12.5v2.4c0 0.4 0.3 0.7 0.7 0.7s0.7-0.3 0.7-0.7v-2.4h4.1l-0.7 8.4h-8.3l-0.7-8.4h4.2zm-4.3-1.4-0.4-5.1h4.7v5.1h-4.3zm5.7 0v-5.1h4.6l-0.4 5.1h-4.2zm-7.1 12.6-1.7-20.4h7.4v1.4h-5.5c-0.2 0-0.4 0.1-0.5 0.2s-0.2 0.3-0.2 0.5l1.4 16.3c0 0.4 0.3 0.6 0.7 0.6h9.6c0.4 0 0.7-0.3 0.7-0.6l1.3-16.3c0-0.2 0-0.4-0.2-0.5-0.1-0.1-0.3-0.2-0.5-0.2h-5.4v-1.4h7.3l-0.2 2-1.5 18.4h-12.7zm24.2 0.1-10.1-0.1 0.2-2.9c0.3 0.1 0.5 0.3 0.8 0.5 0.5 0.4 1.2 0.9 2.5 0.9s1.9-0.5 2.5-0.9c0.5-0.4 0.8-0.6 1.7-0.6 0.8 0 1.2 0.3 1.7 0.6 0.5 0.4 1.2 0.9 2.5 0.9 1.2 0 2-0.7 2.6-1.3l0.1-0.1c-0.8 1.8-2.5 3-4.5 3zm5.2-4.9c-0.1 0-0.2 0-0.3 0.1-0.6 0.2-1 0.6-1.4 0.9-0.6 0.5-1 0.9-1.7 0.9-0.8 0-1.2-0.3-1.7-0.6-0.5-0.4-1.2-0.9-2.5-0.9s-1.9 0.5-2.5 0.9c-0.5 0.4-0.8 0.6-1.7 0.6-0.8 0-1.2-0.3-1.7-0.6-0.4-0.3-0.8-0.6-1.5-0.8l0.1-1.4h14.6c0.2 0 0.5 0.2 0.5 0.5 0.1 0.1 0 0.3-0.2 0.4zm-0.5-2.3h-14.2l0.1-0.9h15.5c-0.3 0.5-0.8 0.9-1.4 0.9z"/>
<g class="st2">
	
	
	
	
<text x="42.662392" y="14.101043" fill="#ffffff" font-family="Arial" font-size="10.667px" font-weight="bold" xml:space="preserve"><tspan x="42.662392" y="14.101043" fill="#ffffff">Lanchonete</tspan></text></g>
<g class="st2" transform="translate(2.0658 1.1676)">
	
	
	
	
	
	
	
	
<text x="44.728146" y="28.022453" fill="#e03131" font-family="Arial" font-size="10.667px" font-weight="bold" xml:space="preserve"><tspan x="44.728146" y="28.022453">Completta</tspan></text></g>
</svg>
