<?xml version="1.0" encoding="UTF-8" standalone="no"?>
<!-- Generator: Adobe Illustrator 23.0.1, SVG Export Plug-In . SVG Version: 6.00 Build 0)  -->

<svg
   version="1.1"
   id="Layer_1"
   x="0px"
   y="0px"
   viewBox="0 0 112 36"
   style="enable-background:new 0 0 112 36;"
   xml:space="preserve"
   sodipodi:docname="Lanchonete.svg"
   inkscape:version="1.2.2 (732a01da63, 2022-12-09)"
   xmlns:inkscape="http://www.inkscape.org/namespaces/inkscape"
   xmlns:sodipodi="http://sodipodi.sourceforge.net/DTD/sodipodi-0.dtd"
   xmlns="http://www.w3.org/2000/svg"
   xmlns:svg="http://www.w3.org/2000/svg"><defs
   id="defs82" /><sodipodi:namedview
   id="namedview80"
   pagecolor="#ffffff"
   bordercolor="#000000"
   borderopacity="0.25"
   inkscape:showpageshadow="2"
   inkscape:pageopacity="0.0"
   inkscape:pagecheckerboard="0"
   inkscape:deskcolor="#d1d1d1"
   showgrid="false"
   inkscape:zoom="11.133929"
   inkscape:cx="68.619086"
   inkscape:cy="17.963111"
   inkscape:window-width="1920"
   inkscape:window-height="1017"
   inkscape:window-x="-8"
   inkscape:window-y="-8"
   inkscape:window-maximized="1"
   inkscape:current-layer="Layer_1" />
<style
   type="text/css"
   id="style43">
	.st0{fill:#FECA57;}
	.st1{fill:#FCC419;}
	.st2{enable-background:new    ;}
	.st3{fill:#FFFFFF;}
	.st4{fill:#E03131;}
</style>
<path
   class="st0"
   d="M30.1,21.3v-0.1c0,0,0-0.1-0.1-0.1L29.9,21l-0.1-0.1c0,0-0.1,0-0.1-0.1h-0.1c-0.1,0-0.2,0-0.3,0h-0.1  c0,0-0.1,0-0.1,0.1L29,21l-0.1,0.1c0,0,0,0.1-0.1,0.1v0.1v0.1v0.1v0.1c0,0,0,0.1,0.1,0.1l0.1,0.1l0.1,0.1c0,0,0.1,0,0.1,0.1h0.1h0.1  h0.1h0.1c0,0,0.1,0,0.1-0.1l0.1-0.1l0.1-0.1c0,0,0-0.1,0.1-0.1v-0.1v-0.1C30.1,21.3,30.1,21.3,30.1,21.3z"
   id="path45" />
<path
   class="st0"
   d="M11.3,28.1V28c0,0,0-0.1-0.1-0.1l-0.1-0.1L11,27.7c0,0-0.1,0-0.1-0.1h-0.1c-0.1,0-0.2,0-0.3,0h-0.1  c0,0-0.1,0-0.1,0.1l-0.1,0.1l-0.1,0.1c0,0,0,0.1-0.1,0.1v0.1v0.1v0.1v0.1c0,0,0,0.1,0.1,0.1l0.1,0.1l0.1,0.1c0,0,0.1,0,0.1,0.1h0.1  h0.1c0.2,0,0.4-0.1,0.5-0.2l0.1-0.1c0,0,0-0.1,0.1-0.1v-0.1v-0.1C11.3,28.2,11.3,28.1,11.3,28.1z"
   id="path47" />
<path
   class="st1"
   d="M36,25.7c0-1-0.5-2-1.4-2.5c-0.3-2.1-1.3-4.1-2.9-5.5c-1.7-1.6-3.9-2.4-6.2-2.4h-5.6l0.1-1.4h0.4  c0.4,0,0.7-0.3,0.7-0.7V9.9c0-0.4-0.3-0.7-0.7-0.7h-1.3l-0.6-2.3c-0.1-0.3-0.4-0.5-0.7-0.5h-6.6V1.6H14c0.4,0,0.7-0.3,0.7-0.7  S14.4,0.2,14,0.2h-3.4c-0.4,0-0.7,0.3-0.7,0.7v5.4H3.3C3,6.3,2.7,6.5,2.6,6.8L2.1,9.2H0.7C0.3,9.2,0,9.5,0,9.9v3.3  c0,0.4,0.3,0.7,0.7,0.7h0.4l1.8,21.2c0,0.4,0.3,0.6,0.7,0.6l24.8,0.1c3.1,0,5.8-2.3,6.2-5.3c0.4-0.3,0.7-0.9,0.7-1.4  c0-0.4-0.1-0.8-0.4-1.1C35.6,27.4,36,26.6,36,25.7z M34.4,24.9H19.1l0.1-0.7h13.9C33.6,24.2,34.1,24.5,34.4,24.9z M21.2,16.7h0.5v1  c0,0.4,0.3,0.7,0.7,0.7c0.4,0,0.7-0.3,0.7-0.7v-1h0.5l1.7,1.5c0.1,0.1,0.3,0.2,0.5,0.2s0.4-0.1,0.5-0.2c0.3-0.3,0.2-0.7-0.1-1  l-0.5-0.4c3.6,0.1,6.6,2.7,7.3,6.1l0,0H19.3l0.1-0.7h7.3c0.4,0,0.7-0.3,0.7-0.7c0-0.4-0.3-0.7-0.7-0.7h-7.2l0.2-2.7L21.2,16.7z   M3.9,7.7h13.5l0.4,1.4H3.5L3.9,7.7z M1.4,10.6h18.3v1.9H1.4V10.6z M9.9,23.1v2.4c0,0.4,0.3,0.7,0.7,0.7s0.7-0.3,0.7-0.7v-2.4h4.1  l-0.7,8.4H6.4l-0.7-8.4H9.9z M5.6,21.7l-0.4-5.1h4.7v5.1H5.6z M11.3,21.7v-5.1h4.6l-0.4,5.1H11.3z M4.2,34.3L2.5,13.9h7.4v1.4H4.4  c-0.2,0-0.4,0.1-0.5,0.2c-0.1,0.1-0.2,0.3-0.2,0.5l1.4,16.3c0,0.4,0.3,0.6,0.7,0.6h9.6c0.4,0,0.7-0.3,0.7-0.6L17.4,16  c0-0.2,0-0.4-0.2-0.5c-0.1-0.1-0.3-0.2-0.5-0.2h-5.4v-1.4h7.3l-0.2,2l0,0l-1.5,18.4H4.2z M28.4,34.4l-10.1-0.1l0.2-2.9  c0.3,0.1,0.5,0.3,0.8,0.5c0.5,0.4,1.2,0.9,2.5,0.9l0,0c1.3,0,1.9-0.5,2.5-0.9c0.5-0.4,0.8-0.6,1.7-0.6c0.8,0,1.2,0.3,1.7,0.6  c0.5,0.4,1.2,0.9,2.5,0.9c1.2,0,2-0.7,2.6-1.3c0,0,0,0,0.1-0.1C32.1,33.2,30.4,34.4,28.4,34.4z M33.6,29.5L33.6,29.5L33.6,29.5  L33.6,29.5L33.6,29.5L33.6,29.5c-0.1,0-0.2,0-0.3,0.1c-0.6,0.2-1,0.6-1.4,0.9l0,0c-0.6,0.5-1,0.9-1.7,0.9c-0.8,0-1.2-0.3-1.7-0.6  c-0.5-0.4-1.2-0.9-2.5-0.9s-1.9,0.5-2.5,0.9c-0.5,0.4-0.8,0.6-1.7,0.6l0,0c-0.8,0-1.2-0.3-1.7-0.6c-0.4-0.3-0.8-0.6-1.5-0.8l0.1-1.4  h14.6c0.2,0,0.5,0.2,0.5,0.5C33.9,29.2,33.8,29.4,33.6,29.5z M33.1,27.2H18.9l0.1-0.9h15.5C34.2,26.8,33.7,27.2,33.1,27.2z"
   id="path49" />


<text
   xml:space="preserve"
   style="font-style:normal;font-variant:normal;font-weight:normal;font-stretch:normal;font-size:10.6667px;font-family:Arial;-inkscape-font-specification:Arial;fill:#000000"
   x="46.255013"
   y="16.076984"
   id="text446"><tspan
     sodipodi:role="line"
     id="tspan444"
     x="46.255013"
     y="16.076984"
     style="font-style:normal;font-variant:normal;font-weight:bold;font-stretch:normal;font-size:10.6667px;font-family:Arial;-inkscape-font-specification:'Arial Bold';fill:#ffffff">Lanchonete</tspan></text><text
   xml:space="preserve"
   style="font-style:normal;font-variant:normal;font-weight:normal;font-stretch:normal;font-size:10.6667px;font-family:Arial;-inkscape-font-specification:Arial;fill:#e03131;fill-opacity:1"
   x="49.578186"
   y="27.93264"
   id="text450"><tspan
     sodipodi:role="line"
     id="tspan448"
     x="49.578186"
     y="27.93264"
     style="font-style:normal;font-variant:normal;font-weight:bold;font-stretch:normal;font-family:Arial;-inkscape-font-specification:'Arial Bold';fill:#e03131;fill-opacity:1">Completta</tspan></text></svg>
